<?xml version="1.0" standalone="no"?>
<!DOCTYPE svg PUBLIC "-//W3C//DTD SVG 20010904//EN"
 "http://www.w3.org/TR/2001/REC-SVG-20010904/DTD/svg10.dtd">
<svg version="1.0" xmlns="http://www.w3.org/2000/svg"
 width="2560.000000pt" height="2560.000000pt" viewBox="0 0 2560.000000 2560.000000"
 preserveAspectRatio="xMidYMid meet">
<metadata>
Created by potrace 1.11, written by Peter Selinger 2001-2013
</metadata>
<g transform="translate(0.000000,2560.000000) scale(0.100000,-0.100000)"
fill="#000000" stroke="none">
<path d="M0 21535 l0 -4065 443 0 443 0 -1 3608 c0 1984 1 3614 3 3622 3 13
413 15 3623 14 2525 0 3619 3 3620 10 0 14 0 847 0 864 -1 9 -821 12 -4066 12
l-4065 0 0 -4065z"/>
<path d="M17468 25588 c-2 -7 -3 -206 -3 -443 l1 -430 3617 -1 c1989 0 3619
-3 3622 -6 4 -3 6 -1633 6 -3622 l0 -3616 445 0 444 0 0 4065 0 4065 -4064 0
c-3242 0 -4065 -3 -4068 -12z"/>
<path d="M12970 20555 c0 -6 74 -152 835 -1650 84 -165 235 -462 335 -660 100
-198 249 -490 330 -650 81 -159 232 -456 335 -660 103 -203 256 -505 340 -670
84 -165 235 -462 335 -660 100 -198 247 -486 325 -640 78 -154 222 -437 320
-630 98 -192 246 -485 330 -650 260 -512 706 -1390 959 -1890 52 -103 66 -124
67 -100 0 17 1 2018 2 4447 l2 4418 -2257 0 c-1242 0 -2258 -2 -2258 -5z"/>
<path d="M8140 9422 l0 -4392 120 0 c157 -1 4319 -1 4366 0 28 0 34 3 27 13
-6 6 -72 134 -148 282 -76 149 -166 324 -200 390 -34 66 -113 219 -175 340
-62 121 -145 283 -185 360 -40 77 -125 244 -190 370 -65 127 -152 298 -195
380 -43 83 -126 245 -185 360 -59 116 -138 269 -175 340 -37 72 -120 234 -185
360 -65 127 -153 298 -195 380 -43 83 -128 249 -190 370 -62 121 -148 288
-190 370 -145 282 -258 500 -365 710 -201 393 -297 580 -380 740 -199 385
-408 793 -555 1080 -62 121 -147 288 -190 370 -43 83 -124 240 -180 350 -56
110 -137 268 -180 350 -43 83 -128 249 -190 370 -189 368 -252 490 -256 494
-2 2 -4 -1972 -4 -4387z"/>
<path d="M0 4065 l0 -4065 4065 0 c3865 0 4065 1 4066 18 0 9 0 208 1 442 l0
425 -3619 0 c-2826 0 -3619 3 -3623 12 -3 7 -5 1637 -4 3623 l0 3610 -443 0
-443 0 0 -4065z"/>
<path d="M24711 4623 c0 -1930 0 -3560 -1 -3623 l0 -115 -3612 1 c-1987 1
-3617 -2 -3623 -5 -6 -4 -10 -162 -10 -444 l0 -437 4068 0 4067 0 0 4065 0
4065 -444 0 -445 0 0 -3507z"/>
</g>
</svg>
